<?xml version="1.0" encoding="UTF-8"?>
<svg id="Layer_1" data-name="Layer 1" xmlns="http://www.w3.org/2000/svg" viewBox="0 0 623.62 267.97">
  <defs>
    <style>
      .cls-1 {
        fill: #231f20;
        stroke-width: 0px;
      }
    </style>
  </defs>
  <g>
    <path class="cls-1" d="M85.95,245.81c.15,0,.3-.1.3-.34v-1.03c0-7.45,0-8.83-.1-10.39-.1-1.66-.49-2.45-2.11-2.79-.39-.1-1.23-.15-1.91-.15-.54,0-.83-.1-.83-.44s.34-.44,1.03-.44c2.65,0,5.74.15,7.06.15,1.18,0,4.26-.15,6.18-.15.69,0,1.03.1,1.03.44s-.3.44-.88.44c-.39,0-.83.05-1.42.15-1.32.25-1.72,1.08-1.81,2.79-.1,1.57-.1,2.94-.1,10.39v8.63c0,4.51,0,8.38.24,10.49.15,1.37.44,2.45,1.91,2.65.69.1,1.76.19,2.5.19.54,0,.78.15.78.39,0,.34-.39.49-.98.49-3.19,0-6.28-.15-7.65-.15-1.13,0-4.22.15-6.13.15-.69,0-1.03-.15-1.03-.49,0-.24.2-.39.78-.39.74,0,1.32-.1,1.77-.19.98-.19,1.23-1.27,1.42-2.7.25-2.06.25-5.94.25-10.44v-4.31c0-.2-.15-.29-.3-.29h-18.73c-.15,0-.29.05-.29.29v4.31c0,4.51,0,8.38.24,10.49.15,1.37.44,2.45,1.91,2.65.69.1,1.77.19,2.5.19.54,0,.78.15.78.39,0,.34-.39.49-.98.49-3.19,0-6.28-.15-7.65-.15-1.13,0-4.22.15-6.18.15-.64,0-.98-.15-.98-.49,0-.24.19-.39.78-.39.73,0,1.32-.1,1.76-.19.98-.19,1.23-1.27,1.42-2.7.25-2.06.25-5.94.25-10.44v-8.63c0-7.45,0-8.83-.1-10.39-.1-1.66-.49-2.45-2.11-2.79-.39-.1-1.23-.15-1.91-.15-.54,0-.83-.1-.83-.44s.34-.44,1.03-.44c2.65,0,5.74.15,7.06.15,1.18,0,4.27-.15,6.18-.15.69,0,1.03.1,1.03.44s-.29.44-.88.44c-.39,0-.83.05-1.42.15-1.32.25-1.72,1.08-1.81,2.79-.1,1.57-.1,2.94-.1,10.39v1.03c0,.24.15.34.29.34h18.73Z"/>
    <path class="cls-1" d="M102.14,248.75c0-8.39,5.54-19.22,20.25-19.22,12.21,0,19.81,7.11,19.81,18.33s-7.84,20.1-20.3,20.1c-14.07,0-19.76-10.54-19.76-19.22ZM135.33,249.69c0-10.98-6.32-17.8-14.36-17.8-5.64,0-12.06,3.14-12.06,15.34,0,10.2,5.64,18.29,15.05,18.29,3.43,0,11.37-1.67,11.37-15.83Z"/>
    <path class="cls-1" d="M158.09,232.97l-7.3.19c-2.84.1-4.02.34-4.76,1.42-.49.73-.73,1.32-.83,1.71-.1.39-.24.59-.54.59-.34,0-.44-.24-.44-.78,0-.79.93-5.24,1.03-5.64.15-.64.29-.93.59-.93.39,0,.88.49,2.11.59,1.42.15,3.28.24,4.9.24h19.41c1.57,0,2.65-.15,3.38-.24.74-.15,1.13-.24,1.32-.24.34,0,.39.29.39,1.03,0,1.03-.15,4.41-.15,5.69-.05.49-.15.79-.44.79-.39,0-.49-.24-.54-.98l-.05-.54c-.1-1.27-1.42-2.65-5.78-2.75l-6.18-.15v20.1c0,4.51,0,8.38.25,10.49.15,1.37.44,2.45,1.91,2.65.69.1,1.77.19,2.5.19.54,0,.78.15.78.39,0,.34-.39.49-.93.49-3.24,0-6.32-.15-7.7-.15-1.13,0-4.22.15-6.18.15-.64,0-.98-.15-.98-.49,0-.24.2-.39.78-.39.73,0,1.32-.1,1.77-.19.98-.19,1.27-1.27,1.42-2.7.24-2.06.24-5.94.24-10.44v-20.1Z"/>
    <path class="cls-1" d="M185.9,244.44c0-7.45,0-8.83-.1-10.39-.1-1.66-.49-2.45-2.11-2.79-.39-.1-1.23-.15-1.91-.15-.54,0-.83-.1-.83-.44s.34-.44,1.08-.44c1.32,0,2.75.05,3.97.05,1.27.05,2.4.1,3.09.1,1.57,0,11.33,0,12.26-.05.93-.1,1.72-.19,2.11-.29.24-.05.54-.19.78-.19s.29.19.29.44c0,.34-.24.93-.39,3.19-.05.49-.15,2.65-.24,3.24-.05.24-.15.54-.49.54s-.44-.24-.44-.69c0-.34-.05-1.18-.29-1.76-.34-.88-.83-1.47-3.28-1.76-.83-.1-5.98-.2-6.96-.2-.24,0-.34.15-.34.49v12.4c0,.34.05.54.34.54,1.08,0,6.72,0,7.84-.1,1.18-.1,1.91-.24,2.35-.74.34-.39.54-.64.78-.64.2,0,.34.1.34.39s-.2,1.08-.39,3.58c-.05.98-.2,2.94-.2,3.28,0,.39,0,.93-.44.93-.34,0-.44-.19-.44-.44-.05-.49-.05-1.13-.19-1.77-.25-.98-.93-1.71-2.75-1.91-.93-.1-5.78-.15-6.96-.15-.25,0-.3.19-.3.49v3.87c0,1.67-.05,6.18,0,7.6.1,3.38.88,4.12,5.88,4.12,1.27,0,3.33,0,4.61-.59,1.27-.59,1.86-1.62,2.21-3.63.1-.54.2-.74.54-.74.39,0,.39.39.39.88,0,1.13-.39,4.46-.64,5.44-.34,1.27-.78,1.27-2.65,1.27-3.68,0-6.37-.1-8.48-.15-2.11-.1-3.63-.15-5.1-.15-.54,0-1.62,0-2.79.05-1.13,0-2.4.1-3.38.1-.64,0-.98-.15-.98-.49,0-.24.19-.39.78-.39.73,0,1.32-.1,1.76-.19.98-.19,1.23-1.27,1.42-2.7.25-2.06.25-5.94.25-10.44v-8.63Z"/>
    <path class="cls-1" d="M222.53,253.07c0,6.28,0,9.66,1.03,10.54.83.74,2.11,1.08,5.93,1.08,2.6,0,4.51-.05,5.74-1.37.59-.64,1.18-2.01,1.27-2.94.05-.44.15-.74.54-.74.34,0,.39.24.39.83,0,.54-.34,4.22-.74,5.64-.29,1.08-.54,1.32-3.09,1.32-3.53,0-6.08-.1-8.29-.15-2.21-.1-3.97-.15-5.98-.15-.54,0-1.62,0-2.79.05-1.13,0-2.4.1-3.38.1-.64,0-.98-.15-.98-.49,0-.24.19-.39.78-.39.73,0,1.32-.1,1.76-.19.98-.19,1.23-1.27,1.42-2.7.25-2.06.25-5.94.25-10.44v-8.63c0-7.45,0-8.83-.1-10.39-.1-1.66-.49-2.45-2.11-2.79-.39-.1-.98-.15-1.62-.15-.54,0-.83-.1-.83-.44s.34-.44,1.08-.44c2.3,0,5.39.15,6.72.15,1.18,0,4.75-.15,6.67-.15.69,0,1.03.1,1.03.44s-.29.44-.88.44c-.54,0-1.32.05-1.91.15-1.32.25-1.72,1.08-1.81,2.79-.1,1.57-.1,2.94-.1,10.39v8.63Z"/>
    <path class="cls-1" d="M242.89,266.7c-.78-.34-.93-.59-.93-1.66,0-2.7.2-5.64.24-6.42.05-.73.2-1.27.59-1.27.44,0,.49.44.49.84,0,.64.2,1.66.44,2.5,1.08,3.63,3.97,4.95,7.01,4.95,4.41,0,6.57-2.99,6.57-5.59,0-2.4-.73-4.66-4.8-7.84l-2.26-1.77c-5.39-4.21-7.26-7.65-7.26-11.62,0-5.39,4.51-9.26,11.33-9.26,3.19,0,5.25.49,6.52.83.44.1.69.24.69.59,0,.64-.2,2.06-.2,5.89,0,1.08-.15,1.47-.54,1.47-.34,0-.49-.29-.49-.88,0-.44-.24-1.96-1.27-3.24-.73-.93-2.16-2.4-5.34-2.4-3.63,0-5.83,2.11-5.83,5.05,0,2.25,1.13,3.97,5.2,7.06l1.37,1.03c5.93,4.46,8.04,7.84,8.04,12.5,0,2.84-1.08,6.23-4.61,8.53-2.45,1.57-5.2,2.01-7.8,2.01-2.84,0-5.05-.34-7.16-1.27Z"/>
    <path class="cls-1" d="M290.65,245.52c-2.06-2.74-2.45-4.76-2.5-6.96-.05-3.87,3.38-9.02,11.91-9.02,2.4,0,4.61.49,5.93,1.03.83.29.83.68.83,1.27,0,1.62-.39,5.54-.54,6.28-.1.73-.29.83-.59.83s-.34-.2-.34-.93c0-1.27-.34-2.84-1.42-4.12-.98-1.18-2.7-2.21-5.44-2.21-2.06,0-5.25,1.42-5.25,5.59,0,4.61,4.22,8.53,8.14,12.89,1.67,1.91,7.7,7.36,8.63,8.19.98-1.37,2.35-4.56,2.35-7.55,0-.74-.2-1.62-.93-2.26-.64-.59-1.67-.73-2.4-.73-.29,0-.59-.1-.59-.39,0-.39.39-.49.79-.49,1.18,0,3.14.05,5.88.34.93.1,1.66.39,1.66.98,0,3.78-2.01,8.34-4.8,11.62,3.28,2.7,5.49,4.02,6.81,4.81,1.57.93,4.26,1.71,5.24,1.71.44,0,.69.05.69.44,0,.29-.39.44-1.47.44h-3.78c-5.59,0-7.35-.54-11.57-3.78-1.62,1.47-4.9,4.46-11.62,4.46-10.49,0-13.63-6.57-13.63-10.83,0-5.74,5.05-10.2,7.99-11.62ZM305.99,261.94c-2.84-2.45-7.55-7.06-8.83-8.44-1.27-1.37-4.41-4.9-5.24-6.13-1.67,1.23-3.38,3.53-3.38,7.45,0,6.13,4.32,10.05,9.41,10.05,3.78,0,7.01-1.96,8.04-2.94Z"/>
    <path class="cls-1" d="M342.29,244.44c0-7.45,0-8.83-.1-10.39-.1-1.66-.49-2.45-2.11-2.79-.39-.1-1.23-.15-1.91-.15-.54,0-.83-.1-.83-.44s.34-.44,1.08-.44c2.6,0,5.69.15,6.72.15,1.67,0,5.39-.15,6.91-.15,3.09,0,6.37.29,9.02,2.11,1.37.93,3.34,3.43,3.34,6.72,0,3.63-1.52,6.96-6.47,10.98,4.36,5.49,7.75,9.85,10.64,12.89,2.75,2.84,4.76,3.19,5.49,3.34.54.1.98.15,1.37.15s.59.15.59.39c0,.39-.34.49-.93.49h-4.66c-2.74,0-3.97-.25-5.24-.93-2.11-1.13-3.97-3.43-6.71-7.21-1.96-2.7-4.22-6.03-4.86-6.76-.24-.29-.54-.34-.88-.34l-4.27-.1c-.24,0-.39.1-.39.39v.69c0,4.56,0,8.43.24,10.49.15,1.42.44,2.5,1.91,2.7.73.1,1.81.19,2.4.19.39,0,.59.15.59.39,0,.34-.34.49-.98.49-2.84,0-6.47-.15-7.21-.15-.93,0-4.02.15-5.98.15-.64,0-.98-.15-.98-.49,0-.24.19-.39.78-.39.74,0,1.32-.1,1.76-.19.98-.19,1.23-1.27,1.42-2.7.24-2.06.24-5.94.24-10.44v-8.63ZM348.07,248.31c0,.54.1.74.44.88,1.03.34,2.5.49,3.73.49,1.96,0,2.6-.2,3.48-.84,1.47-1.08,2.89-3.33,2.89-7.35,0-6.96-4.61-8.97-7.5-8.97-1.23,0-2.11.05-2.6.2-.34.1-.44.29-.44.68v14.91Z"/>
    <path class="cls-1" d="M378.82,244.44c0-7.45,0-8.83-.1-10.39-.1-1.66-.49-2.45-2.11-2.79-.39-.1-1.23-.15-1.91-.15-.54,0-.83-.1-.83-.44s.34-.44,1.08-.44c1.32,0,2.75.05,3.97.05,1.27.05,2.4.1,3.09.1,1.57,0,11.33,0,12.26-.05.93-.1,1.71-.19,2.11-.29.24-.05.54-.19.79-.19s.29.19.29.44c0,.34-.24.93-.39,3.19-.05.49-.15,2.65-.24,3.24-.05.24-.15.54-.49.54s-.44-.24-.44-.69c0-.34-.05-1.18-.29-1.76-.34-.88-.84-1.47-3.29-1.76-.83-.1-5.98-.2-6.96-.2-.24,0-.34.15-.34.49v12.4c0,.34.05.54.34.54,1.08,0,6.72,0,7.84-.1,1.18-.1,1.91-.24,2.35-.74.34-.39.54-.64.78-.64.2,0,.34.1.34.39s-.19,1.08-.39,3.58c-.05.98-.2,2.94-.2,3.28,0,.39,0,.93-.44.93-.34,0-.44-.19-.44-.44-.05-.49-.05-1.13-.19-1.77-.25-.98-.93-1.71-2.75-1.91-.93-.1-5.78-.15-6.96-.15-.25,0-.3.19-.3.49v3.87c0,1.67-.05,6.18,0,7.6.1,3.38.89,4.12,5.89,4.12,1.27,0,3.33,0,4.61-.59s1.86-1.62,2.21-3.63c.1-.54.19-.74.54-.74.39,0,.39.39.39.88,0,1.13-.39,4.46-.64,5.44-.34,1.27-.78,1.27-2.65,1.27-3.68,0-6.37-.1-8.48-.15-2.11-.1-3.63-.15-5.1-.15-.54,0-1.62,0-2.79.05-1.13,0-2.4.1-3.39.1-.64,0-.98-.15-.98-.49,0-.24.19-.39.78-.39.74,0,1.32-.1,1.76-.19.98-.19,1.23-1.27,1.42-2.7.24-2.06.24-5.94.24-10.44v-8.63Z"/>
    <path class="cls-1" d="M406.63,266.7c-.79-.34-.93-.59-.93-1.66,0-2.7.19-5.64.24-6.42.05-.73.19-1.27.59-1.27.44,0,.49.44.49.84,0,.64.2,1.66.44,2.5,1.08,3.63,3.97,4.95,7.01,4.95,4.41,0,6.57-2.99,6.57-5.59,0-2.4-.74-4.66-4.81-7.84l-2.26-1.77c-5.39-4.21-7.26-7.65-7.26-11.62,0-5.39,4.51-9.26,11.33-9.26,3.19,0,5.25.49,6.52.83.44.1.68.24.68.59,0,.64-.19,2.06-.19,5.89,0,1.08-.15,1.47-.54,1.47-.34,0-.49-.29-.49-.88,0-.44-.24-1.96-1.27-3.24-.73-.93-2.16-2.4-5.34-2.4-3.63,0-5.83,2.11-5.83,5.05,0,2.25,1.13,3.97,5.2,7.06l1.37,1.03c5.93,4.46,8.04,7.84,8.04,12.5,0,2.84-1.08,6.23-4.61,8.53-2.45,1.57-5.2,2.01-7.79,2.01-2.84,0-5.05-.34-7.16-1.27Z"/>
    <path class="cls-1" d="M432.03,248.75c0-8.39,5.54-19.22,20.25-19.22,12.21,0,19.81,7.11,19.81,18.33s-7.84,20.1-20.3,20.1c-14.07,0-19.76-10.54-19.76-19.22ZM465.22,249.69c0-10.98-6.32-17.8-14.36-17.8-5.64,0-12.06,3.14-12.06,15.34,0,10.2,5.64,18.29,15.05,18.29,3.43,0,11.37-1.67,11.37-15.83Z"/>
    <path class="cls-1" d="M481.85,244.44c0-7.45,0-8.83-.1-10.39-.1-1.66-.49-2.45-2.11-2.79-.39-.1-1.23-.15-1.91-.15-.54,0-.83-.1-.83-.44s.34-.44,1.08-.44c2.6,0,5.69.15,6.72.15,1.67,0,5.39-.15,6.91-.15,3.09,0,6.37.29,9.02,2.11,1.37.93,3.34,3.43,3.34,6.72,0,3.63-1.52,6.96-6.47,10.98,4.36,5.49,7.75,9.85,10.64,12.89,2.75,2.84,4.76,3.19,5.49,3.34.54.1.98.15,1.37.15s.59.15.59.39c0,.39-.34.49-.93.49h-4.66c-2.74,0-3.97-.25-5.24-.93-2.11-1.13-3.97-3.43-6.71-7.21-1.96-2.7-4.22-6.03-4.86-6.76-.24-.29-.54-.34-.88-.34l-4.27-.1c-.24,0-.39.1-.39.39v.69c0,4.56,0,8.43.24,10.49.15,1.42.44,2.5,1.91,2.7.73.1,1.81.19,2.4.19.39,0,.59.15.59.39,0,.34-.34.49-.98.49-2.84,0-6.47-.15-7.21-.15-.93,0-4.02.15-5.98.15-.64,0-.98-.15-.98-.49,0-.24.19-.39.78-.39.74,0,1.32-.1,1.76-.19.98-.19,1.23-1.27,1.42-2.7.24-2.06.24-5.94.24-10.44v-8.63ZM487.64,248.31c0,.54.1.74.44.88,1.03.34,2.5.49,3.73.49,1.96,0,2.6-.2,3.48-.84,1.47-1.08,2.89-3.33,2.89-7.35,0-6.96-4.61-8.97-7.5-8.97-1.23,0-2.11.05-2.6.2-.34.1-.44.29-.44.68v14.91Z"/>
    <path class="cls-1" d="M523.05,232.97l-7.31.19c-2.84.1-4.02.34-4.76,1.42-.49.73-.73,1.32-.83,1.71-.1.39-.24.59-.54.59-.34,0-.44-.24-.44-.78,0-.79.93-5.24,1.03-5.64.15-.64.29-.93.59-.93.39,0,.88.49,2.11.59,1.42.15,3.29.24,4.9.24h19.41c1.57,0,2.65-.15,3.38-.24.74-.15,1.13-.24,1.32-.24.34,0,.39.29.39,1.03,0,1.03-.15,4.41-.15,5.69-.05.49-.15.79-.44.79-.39,0-.49-.24-.54-.98l-.05-.54c-.1-1.27-1.42-2.65-5.78-2.75l-6.18-.15v20.1c0,4.51,0,8.38.25,10.49.15,1.37.44,2.45,1.91,2.65.69.1,1.77.19,2.5.19.54,0,.79.15.79.39,0,.34-.39.49-.93.49-3.24,0-6.32-.15-7.7-.15-1.13,0-4.21.15-6.18.15-.64,0-.98-.15-.98-.49,0-.24.2-.39.79-.39.73,0,1.32-.1,1.76-.19.98-.19,1.27-1.27,1.42-2.7.24-2.06.24-5.94.24-10.44v-20.1Z"/>
    <path class="cls-1" d="M548.16,266.7c-.79-.34-.93-.59-.93-1.66,0-2.7.19-5.64.24-6.42.05-.73.19-1.27.59-1.27.44,0,.49.44.49.84,0,.64.2,1.66.44,2.5,1.08,3.63,3.97,4.95,7.01,4.95,4.41,0,6.57-2.99,6.57-5.59,0-2.4-.74-4.66-4.81-7.84l-2.26-1.77c-5.39-4.21-7.26-7.65-7.26-11.62,0-5.39,4.51-9.26,11.33-9.26,3.19,0,5.25.49,6.52.83.44.1.68.24.68.59,0,.64-.19,2.06-.19,5.89,0,1.08-.15,1.47-.54,1.47-.34,0-.49-.29-.49-.88,0-.44-.24-1.96-1.27-3.24-.73-.93-2.16-2.4-5.34-2.4-3.63,0-5.83,2.11-5.83,5.05,0,2.25,1.13,3.97,5.2,7.06l1.37,1.03c5.93,4.46,8.04,7.84,8.04,12.5,0,2.84-1.08,6.23-4.61,8.53-2.45,1.57-5.2,2.01-7.79,2.01-2.84,0-5.05-.34-7.16-1.27Z"/>
  </g>
  <g>
    <path class="cls-1" d="M621.62,203.06c-1.77,0-3.62-.22-5.5-.65-2.64-.64-4.87-1.78-6.62-3.38-2.99-2.81-5.98-7.87-8.88-15.04-16.49-41.19-29.73-74.6-39.38-99.29-2.17-5.43-3.28-6.13-4.01-6.13s-1.85.75-4.01,6.62l-38.37,102.26c-2.97,7.87-6.75,12.77-11.24,14.57h-.02c-.19,0-.34.1-.48.2-.02.02-.05.03-.06.05-3.09-.97-4.82-3.91-5.14-8.81-.19-3,.29-96.53.51-100.08.33-5.49,2.29-8.46,6-9.1,1.89-.33,3.3-.49,4.17-.49,1.45,0,1.67-.81,1.67-1.3,0-1.08-1.02-1.63-3.02-1.63s-5.3.11-9.98.33l-6.58.16-6.75-.16c-4.62-.22-8.09-.33-10.32-.33-2,0-3.01.55-3.01,1.63,0,.49.22,1.3,1.66,1.3,1.54,0,3.28.22,5.16.65,3.33.84,5.18,3.84,5.51,8.94.19,3.01-.29,96.54-.51,100.08-.28,4.62-1.73,7.43-4.38,8.6-5.91-1.56-11.63-5.28-17.04-11.11-4.06-4.31-9.23-10.44-15.36-18.23-1.44-1.87-7.03-9.04-18.11-23.25,12.92-12.12,19.47-24.8,19.47-37.69,0-9.41-3.8-16.95-11.29-22.42-6.61-4.8-16.63-7.23-29.8-7.23-1.94,0-5.49.11-10.85.33-5.28.11-7.94.16-8.25.16v.07c-.59-.09-2.21-.13-6.62-.23-4.75-.22-8.67-.33-11.67-.33-1.93,0-2.9.54-2.9,1.62,0,.48.21,1.29,1.61,1.29,2.12,0,3.95.16,5.43.48,4.2.95,6.4,3.9,6.72,9.01.21,3.59.32,15.43.32,35.19v28.69c0,19.25-.27,31.13-.81,35.34-.63,5.26-2.12,8.19-4.45,8.7-2.02.43-3.58.65-4.63.65-1.54,0-1.77.81-1.77,1.29,0,1.07.98,1.61,2.9,1.61,2.72,0,7.82-.16,15.17-.49.25.01,2.14.06,6.83.16,5.08.22,9.49.33,13.12.33,1.93,0,2.9-.54,2.9-1.61,0-.48-.21-1.29-1.61-1.29-1.7,0-4.13-.22-7.24-.65-3.39-.52-5.42-3.44-6.05-8.69-.53-4.75-.81-16.64-.81-35.34v-3.91c0-.87.42-.99.82-.99l19.91.33c.68,0,1.29.29,1.85.85,6.93,9.34,12.87,17.46,17.64,24.13,6.12,8.14,9.99,13.11,11.82,15.18,3.57,4.25,6.98,7.24,10.12,8.88,3.8,2.08,9.68,3.13,17.47,3.13h11.49c1.46,0,2.52-.14,3.21-.43l2.54-.06,6.75.16c4.69.22,8.07.33,10.32.33,1.07,0,1.85-.16,2.35-.48,1.25,0,2.63,0,4.16,0h2.12s.95-.02.95-.02l.67.02c5.57-.01,11.29-.05,14.74-.07h.12s.09-.08.09-.08c.28-.26.42-.6.42-1,0-.59-.35-1.3-2-1.3h-1.69c-4.11,0-6.11-1.46-6.11-4.47,0-2.81.79-6.49,2.35-10.93l10.14-29.14c.29-.75.75-1.12,1.4-1.12h36.34c.55,0,.96.27,1.23.79l15.72,40.51c.58,1.44.7,2.52.36,3.2-.21.41-.59.68-1.17.83-1.16.32-1.41.97-1.41,1.45,0,.64.64,1.31,5.37,1.46,6.65.22,15.58.33,26.54.33.91,0,3.69,0,3.69-1.62,0-.59-.35-1.3-2-1.3ZM554.36,104.05c.11,0,.5.13,1.06,1.61l16.05,44.44c.09.3.1.54.02.64-.07.1-.25.12-.39.12h-32.28c-.09,0-.2-.01-.25-.07-.03-.04-.1-.19.04-.67l14.87-44.45c.56-1.5.87-1.6.89-1.61ZM394.26,145.57c-.66-.38-.98-.93-.98-1.68v-53.31c0-.85.35-1.38,1.07-1.66,2.12-.64,5.74-.96,10.75-.96,8.5,0,15.28,2.87,20.16,8.53,5,5.68,7.53,13.67,7.53,23.76,0,12.01-3.28,20.37-9.74,24.85-2.95,2.02-6.98,3.04-11.96,3.04-8.32,0-13.98-.86-16.84-2.57Z"/>
    <path class="cls-1" d="M338.76,70.75c-15.08-13.75-34.77-20.72-58.54-20.72-26.13,0-47.16,9.41-62.51,27.98-12.99,15.53-19.58,33.38-19.58,53.04,0,21.17,6.38,39.56,18.96,54.69,14.79,17.74,35.62,26.74,61.89,26.74,24.47,0,44.79-8.43,60.42-25.07,15.07-15.95,22.71-36.02,22.71-59.66s-7.86-42.82-23.35-56.99ZM320.08,191.29c-10,8.44-21.94,12.72-35.5,12.72-18.91,0-34.68-7.19-46.88-21.36-12.76-14.59-19.23-33.9-19.23-57.38,0-21.7,5.77-38.78,17.14-50.76,10.82-11.17,25.34-16.83,43.16-16.83s31.92,6.49,43.57,19.3c12.76,14.04,19.22,33.07,19.22,56.55,0,26.07-7.23,45.5-21.48,57.76Z"/>
    <path class="cls-1" d="M116.87,143.61c-1.93,0-5.02.11-9.44.33l-6.22.17-6.55-.17c-4.69-.22-8.57-.33-11.53-.33-1.9,0-2.87.55-2.87,1.63,0,.49.21,1.3,1.59,1.3,2.42,0,4.22.16,5.35.48,3.08.85,5.01,2.17,5.72,3.95.83,1.81,1.25,6.09,1.25,12.71v28c0,2.54-.99,4.33-3.04,5.49-3.88,2.27-9.96,3.42-18.07,3.42-16.04,0-30.06-5.9-41.67-17.53-3.9-3.91-7.43-9.31-10.49-16.04-4.23-9.36-6.37-19.23-6.37-29.35,0-19.13,5.29-33.13,15.72-41.58,8.75-7.17,20.19-10.8,34.02-10.8,9.51,0,17.92,1.43,24.98,4.26,5.99,2.49,10.14,5.5,12.33,8.94,1.88,2.9,2.99,6.51,3.31,10.72.04.68.18,2.76,1.43,2.76,1.75,0,1.75-2.84,1.75-3.77,0-6.66.16-12.35.48-16.93.49-5.49.6-6.32.62-6.42l-.11-.03h.13c0-.73-.39-1.63-2.21-1.79-5.18-.33-9.52-.88-12.9-1.64-8.09-1.86-16.35-2.81-24.53-2.81-17.56,0-31.93,3.51-42.7,10.42-7.79,4.95-14.12,11.91-18.81,20.7C2.7,119.68,0,131.03,0,143.43c0,9.66,2,19.07,5.94,27.95,3.41,8.02,7.85,14.49,13.19,19.21,13.11,11.74,30.88,17.7,52.81,17.7,13.74,0,25.19-2.51,34.05-7.45,1.03-.59,1.67-1.31,1.9-2.17.22-.91.33-3.19.33-6.99v-18.44c0-7.78.11-13.53.32-17.11.31-5.41,2.21-8.47,5.66-9.1,1.78-.32,3.11-.49,3.94-.49,1.38,0,1.59-.81,1.59-1.3,0-1.08-.97-1.63-2.87-1.63Z"/>
    <path class="cls-1" d="M203.07,182.47c-.96,0-1.58.81-1.83,2.41-.55,3.76-2.01,7.03-4.32,9.72-2.74,3.21-9.54,4.83-20.21,4.83s-17.55-1.19-20.06-3.53c-2.41-2.45-3.63-15.12-3.63-37.66v-29.31c0-19.97.11-31.93.34-35.55.33-5.48,2.4-8.46,6.3-9.09,1.57-.11,3.1-.17,4.56-.17,1.76-.12,2.66-.67,2.66-1.63,0-1.08-1.02-1.63-3.02-1.63s-5.57.11-10.82.33l-7.42.16-6.92-.16c-4.96-.22-9.06-.33-12.18-.33-2,0-3.02.55-3.02,1.63,0,.49.22,1.3,1.67,1.3,2.22,0,4.13.16,5.68.49,4.39.96,6.69,3.94,7.02,9.1.22,3.61.34,15.57.34,35.55v28.98c0,19.44-.28,31.45-.84,35.69-.65,5.32-2.22,8.27-4.65,8.79-2.11.43-3.74.65-4.84.65-1.6,0-1.83.81-1.83,1.3,0,1.08,1.02,1.62,3.02,1.62s5.19-.11,9.64-.33l6.92-.16c2.04,0,7.77.17,17.06.49,9.45.33,18.95.5,28.23.5,4.37,0,7.06-.28,8.23-.84,1.22-.47,2.13-1.76,2.72-3.82,1.69-5.71,2.55-11.28,2.55-16.55,0-.69,0-2.78-1.33-2.78Z"/>
    <path class="cls-1" d="M222.12,18.45h0s11.91,24.15,11.91,24.15l.27-.11c14.54-5.99,29.96-9.02,45.83-9.02s31.28,3.04,45.83,9.02l.27.11,11.91-24.15h0s.72-1.43.72-1.43l-2.32,1.99-16.01,13.32V8.98l-13.2,21.05-5.42-24.68-12.14,23.86-9.63-29.21-9.63,29.21-12.14-23.86-5.42,24.68-13.2-21.05v23.34l-17.14-14.25h0s-1.17-1-1.17-1l.7,1.38Z"/>
    <path class="cls-1" d="M236.24,47.89l-.3.13,2.32,4.94.28-.11c13.19-5.48,27.18-8.25,41.59-8.25s28.4,2.78,41.59,8.25l.27.11,2.31-4.94-.3-.13c-13.91-5.81-28.67-8.75-43.88-8.75s-29.97,2.94-43.88,8.75Z"/>
  </g>
</svg>